<svg width="154" height="16" viewBox="0 0 154 16" fill="none" xmlns="http://www.w3.org/2000/svg">
<g clip-path="url(#clip0_714_1705)">
<path fill-rule="evenodd" clip-rule="evenodd" d="M3.5 1.75C3.5 2.7165 2.7165 3.5 1.75 3.5C0.783502 3.5 0 2.7165 0 1.75C0 0.783502 0.783502 0 1.75 0C2.7165 0 3.5 0.783502 3.5 1.75ZM0 5H3.578V16H0V5ZM13.2998 5.12119C13.2954 5.11973 13.2909 5.11825 13.2864 5.11678C13.2616 5.10856 13.2367 5.10033 13.21 5.093C13.162 5.082 13.114 5.073 13.065 5.065C12.875 5.027 12.667 5 12.423 5C10.337 5 9.014 6.517 8.578 7.103V5H5V16H8.578V10C8.578 10 11.282 6.234 12.423 9V16H16V8.577C16 6.915 14.861 5.53 13.324 5.129C13.3159 5.12643 13.3078 5.12382 13.2998 5.12119Z" fill="#B0B8BC"/>
<path d="M62 2.87237C61.405 3.13337 60.771 3.30637 60.11 3.39037C60.79 2.98437 61.309 2.34637 61.553 1.57737C60.919 1.95537 60.219 2.22237 59.473 2.37137C58.871 1.73037 58.013 1.33337 57.077 1.33337C55.261 1.33337 53.799 2.80737 53.799 4.61437C53.799 4.87437 53.821 5.12437 53.875 5.36237C51.148 5.22937 48.735 3.92237 47.114 1.93137C46.831 2.42237 46.665 2.98437 46.665 3.58937C46.665 4.72537 47.25 5.73237 48.122 6.31537C47.595 6.30537 47.078 6.15237 46.64 5.91137C46.64 5.92137 46.64 5.93437 46.64 5.94737C46.64 7.54137 47.777 8.86537 49.268 9.17037C49.001 9.24337 48.71 9.27837 48.408 9.27837C48.198 9.27837 47.986 9.26637 47.787 9.22237C48.212 10.5214 49.418 11.4764 50.852 11.5074C49.736 12.3804 48.319 12.9064 46.785 12.9064C46.516 12.9064 46.258 12.8944 46 12.8614C47.453 13.7984 49.175 14.3334 51.032 14.3334C57.068 14.3334 60.368 9.33337 60.368 4.99937C60.368 4.85437 60.363 4.71437 60.356 4.57537C61.007 4.11337 61.554 3.53637 62 2.87237Z" fill="#B0B8BC"/>
<path fill-rule="evenodd" clip-rule="evenodd" d="M143 0H149C151.761 0 154 2.239 154 5V11C154 13.761 151.761 16 149 16H143C140.239 16 138 13.761 138 11V5C138 2.239 140.239 0 143 0ZM149 14.5C150.93 14.5 152.5 12.93 152.5 11V5C152.5 3.07 150.93 1.5 149 1.5H143C141.07 1.5 139.5 3.07 139.5 5V11C139.5 12.93 141.07 14.5 143 14.5H149ZM142 8C142 5.791 143.791 4 146 4C148.209 4 150 5.791 150 8C150 10.209 148.209 12 146 12C143.791 12 142 10.209 142 8ZM143.5 8C143.5 9.378 144.622 10.5 146 10.5C147.378 10.5 148.5 9.378 148.5 8C148.5 6.621 147.378 5.5 146 5.5C144.622 5.5 143.5 6.621 143.5 8ZM150.833 3.7C150.833 3.99437 150.594 4.233 150.3 4.233C150.006 4.233 149.767 3.99437 149.767 3.7C149.767 3.40564 150.006 3.167 150.3 3.167C150.594 3.167 150.833 3.40564 150.833 3.7Z" fill="#B0B8BC"/>
<path fill-rule="evenodd" clip-rule="evenodd" d="M105.456 2.75863C106.415 2.81263 106.886 2.95463 107.32 3.72663C107.772 4.49763 108 5.82563 108 8.16463V8.16763V8.17263C108 10.5006 107.772 11.8386 107.321 12.6016C106.887 13.3736 106.416 13.5136 105.457 13.5786C104.498 13.6336 102.089 13.6666 100.002 13.6666C97.911 13.6666 95.501 13.6336 94.543 13.5776C93.586 13.5126 93.115 13.3726 92.677 12.6006C92.23 11.8376 92 10.4996 92 8.17163V8.16963V8.16663V8.16363C92 5.82563 92.23 4.49763 92.677 3.72663C93.115 2.95363 93.587 2.81263 94.544 2.75763C95.501 2.69363 97.911 2.66663 100.002 2.66663C102.089 2.66663 104.498 2.69363 105.456 2.75863ZM103 8.16663L98 5.16663V11.1666L103 8.16663Z" fill="#B0B8BC"/>
</g>
<defs>
<clipPath id="clip0_714_1705">
<rect width="154" height="16" fill="white"/>
</clipPath>
</defs>
</svg>
